<svg width="288" height="115" viewBox="0 0 288 115" fill="none" xmlns="http://www.w3.org/2000/svg">
<path fill-rule="evenodd" clip-rule="evenodd" d="M4.29153e-06 63.856L16 53.2134C32 42.5707 64 21.2853 96 19.2159C128 17.1465 160 33.9974 192 33.9974C224 33.9974 256 17.1465 272 8.57327L288 0V115H272C256 115 224 115 192 115C160 115 128 115 96 115C64 115 32 115 16 115H4.29153e-06V63.856Z" fill="#D1D1D1"/>
<path fill-rule="evenodd" clip-rule="evenodd" d="M288 75.8637L272 67.7198C256 59.5758 224 43.2879 192 41.7044C160 40.1208 128 53.0154 96 53.0154C64 53.0154 32 40.1208 16 33.5604L0 27L4.29153e-06 115H16C32 115 64 115 96 115C128 115 160 115 192 115C224 115 256 115 272 115H288V75.8637Z" fill="#D0C1C1"/>
</svg>
