<svg width="279" height="684" viewBox="0 0 279 684" fill="none" xmlns="http://www.w3.org/2000/svg">
<path fill-rule="evenodd" clip-rule="evenodd" d="M124.08 5.4237e-06L149.9 38C175.72 76 227.36 152 232.38 228C237.401 304 196.519 380 196.519 456C196.519 532 237.401 608 258.201 646L279 684H0L1.66103e-06 646C3.32207e-06 608 6.64413e-06 532 9.9662e-06 456C1.32883e-05 380 1.66103e-05 304 1.99324e-05 228C2.32545e-05 152 2.65765e-05 76 2.82376e-05 38L2.98986e-05 0L124.08 5.4237e-06Z" fill="#272727"/>
<path fill-rule="evenodd" clip-rule="evenodd" d="M90.2802 684L109.067 646C127.853 608 165.427 532 169.08 456C172.733 380 142.987 304 142.987 228C142.987 152 172.733 76 187.866 38L203 1.21955e-05L2.98986e-05 0L2.82376e-05 38C2.65765e-05 76 2.32545e-05 152 1.99324e-05 228C1.66103e-05 304 1.32883e-05 380 9.9662e-06 456C6.64413e-06 532 3.32207e-06 608 1.66103e-06 646L0 684H90.2802Z" fill="#535353"/>
</svg>
