<svg width="42" height="42" viewBox="0 0 42 42" fill="none" xmlns="http://www.w3.org/2000/svg">
<g clip-path="url(#clip0_18_36)">
<path d="M23.8042 20.5112L23.1994 12.4037C23.1532 11.5125 22.303 10.7881 21.3201 10.7849V0.655257C21.3201 0.293227 21.0265 0 20.6648 0C20.3031 0 20.0096 0.293227 20.0096 0.655257V10.7849C19.0267 10.7895 18.5366 11.5132 18.4894 12.403L18.1526 20.5109C10.9903 21.8237 5.58868 28.3176 5.58868 35.8537C5.58868 36.0349 5.78002 36.392 5.9612 36.392H15.794C15.7655 36.7196 15.7501 36.6275 15.7501 36.8526C15.7501 39.7489 18.1064 42 21.0026 42C23.8989 42 26.2552 39.8013 26.2552 36.905C26.2552 36.6796 26.2394 36.7196 26.2113 36.392H36.0837C36.2649 36.392 36.4113 36.0349 36.4113 35.8537C36.4113 28.3182 30.9655 21.825 23.8042 20.5112ZM21.0026 40.6895C18.8288 40.6895 17.0606 39.0789 17.0606 36.905C17.0606 36.679 17.0865 36.7196 17.1245 36.392H24.8808C24.9188 36.7196 24.9446 36.6262 24.9446 36.8526C24.9446 39.0264 23.1764 40.6895 21.0026 40.6895Z" fill="black"/>
</g>
<defs>
<clipPath id="clip0_18_36">
<rect width="42" height="42" fill="white"/>
</clipPath>
</defs>
</svg>
